# xmcd
# 
# Track frame offsets:
#     182
#     19072
#     37685
#     58762
#     79810
#     96832
#     112710
#     133560
#     152995
#     160287
# 
# Disc length: 2362
# 
# Revision: 6
# Processed by: cddbd v1.5.2PL0 Copyright (c) Steve Scherf et al.
# Submitted via: fre:ac v1.0.31
# 
DISCID=7109380a
DTITLE=Various Artist - St. Elmo's Fire
DYEAR=1985
DGENRE=Soundtrack
TTITLE0=John Parr - St. Elmo's Fire (Man in Motion)
TTITLE1=Billy Squier - Shake Down
TTITLE2=Elefante - Young and Innocent
TTITLE3=Jon Anderson - This Time it Was Really Right
TTITLE4=Fee Waybill - Saved My Life
TTITLE5=David Foster - Love Theme From St. Elmo's Fire (Instrumental)
TTITLE6=Vikki Moss - If I Turn You Away
TTITLE7=Airplay - Stressed Out (Close to the Edge)
TTITLE8=David Foster - Georgetown
TTITLE9=David Foster - Love Theme From St. Elmo's Fire (For Just a Moment)
EXTD=YEAR: 1985
EXTT0=
EXTT1=
EXTT2=
EXTT3=
EXTT4=
EXTT5=
EXTT6=
EXTT7=
EXTT8=
EXTT9=
PLAYORDER=
